<?xml version="1.0" encoding="UTF-8"?>
<svg id="Layer_1" data-name="Layer 1" xmlns="http://www.w3.org/2000/svg" viewBox="0 0 1220.66 1005.32">
  <defs>
    <style>
      .cls-1 {
        fill: #fff;
        fill-rule: evenodd;
      }
    </style>
  </defs>
  <path class="cls-1" d="M0,546.24c0,7.48,1.66,12.46,6.64,17.44,70.6,53.99,71.43,54.82,147.84,9.97,259.13-154.48,533.21-264.12,839.69-275.74,46.51-2.49,93.85-.83,141.19.83,49.83,2.49,79.73-16.61,83.06-70.6,3.32-55.65,3.32-112.12-2.49-167.77-4.98-49-31.56-65.61-78.07-58.97-122.92,17.44-308.13,66.44-446.84,117.94C459.3,210.7,243.35,329.47,46.51,483.95c-20.76,16.61-46.51,30.73-46.51,62.29h0Z"/>
  <path class="cls-1" d="M124.58,629.3c-3.32,4.98-1.66,8.31,1.66,10.8,54.82,54.82,112.12,73.09,191.03,40.7,232.55-95.51,472.58-125.41,718.43-52.32,41.53,12.46,71.43-2.49,87.21-43.19,12.46-29.9,26.58-59.8,36.54-90.53,18.27-53.99,7.48-73.92-49-84.72-151.16-30.73-303.15-25.75-454.31,2.49-102.99,18.27-200.99,51.49-298.17,87.21,0,0-170.26,67.27-233.39,129.57h0Z"/>
  <path class="cls-1" d="M720.09,656.7c-127.07-12.46-200.99.83-308.13,19.1-7.47,1.66-88.87,14.12-88.87,48.17,0,29.07,37.37,34.88,61.46,42.36,142.02,47.34,279.07,103.82,384.55,217.6,30.73,32.39,68.11,25.75,96.34-4.98,47.34-50.66,89.7-104.65,127.07-163.62,24.92-39.04,13.29-68.11-27.41-88.04-60.63-29.9-196.84-67.27-245.01-70.6h0Z"/>
</svg>