<?xml version="1.0" encoding="UTF-8"?>
<svg id="Layer_1" data-name="Layer 1" xmlns="http://www.w3.org/2000/svg" viewBox="0 0 924.45 393.31">
  <defs>
    <style>
      .cls-1, .cls-2 {
        fill: #fff;
      }

      .cls-2 {
        fill-rule: evenodd;
      }
    </style>
  </defs>
  <path class="cls-1" d="M357.4,362.59l-6.23-2.57-.4-.18c-1.83-.81-3.91-1.73-4.08-3.6-.08-.89.13-1.61.67-2.19,1.01-1.11,2.94-1.5,4.41-1.5h0c3.96,0,6.24,2.07,6.61,5.99l.06.67h6.52l-.08-.81c-.72-7.62-5.49-11.65-13.78-11.65-4.58,0-7.19,1.81-8.58,3.33-1.98,2.18-2.51,4.8-2.35,6.54.51,5.39,4.15,7.39,8.16,9.14l5.86,2.45c1.89.85,3.03,1.71,3.21,3.6.08.89-.16,1.67-.74,2.3-.93,1.03-2.71,1.64-4.75,1.64h0c-6.28,0-7.65-2.34-8.08-6.95l-.06-.67h-6.52l.08.81c.79,8.37,5.66,12.62,14.47,12.62,4.21,0,7.69-1.27,9.78-3.57,1.76-1.94,2.51-4.5,2.22-7.62-.38-3.97-3.56-6.61-6.41-7.76Z"/>
  <polygon class="cls-1" points="296.69 336 295.77 343.6 302.66 343.6 303.58 336 296.69 336"/>
  <polygon class="cls-1" points="291.4 380.58 298.29 380.58 302.16 347.71 295.27 347.71 291.4 380.58"/>
  <path class="cls-1" d="M280.27,368.11c-.73,3.52-3.19,7.28-7.9,7.28s-7.02-3.9-7.37-7.56c-.36-3.84.57-9.13,3.46-12.31,1.58-1.73,3.55-2.61,5.85-2.61,3.87,0,6.71,2.48,7.06,6.17l.06.67h6.93l-.13-.85c-1.15-7.72-6.19-12.15-13.82-12.15-4.74,0-8.78,1.69-11.69,4.88-3.53,3.88-5.21,9.79-4.6,16.22,1.2,12.71,11.23,13.7,14.27,13.7,7.65,0,13.43-5.17,14.73-13.17l.14-.86h-6.87l-.12.59Z"/>
  <polygon class="cls-1" points="252.06 334.92 243.32 334.92 237.67 345.04 243.6 345.04 252.06 334.92"/>
  <path class="cls-1" d="M150.49,354.68c-.5-5.27-5.1-7.63-9.44-7.63-3.77,0-6.77,1.28-9.71,4.21l.39-3.55h-6.58s-3.87,32.87-3.87,32.87h6.71l2.18-17.81c.58-4.57,4.23-9.5,9.12-9.5,2.9,0,4.23,1.02,4.45,3.41.08.86-.06,2.14-.28,3.86l-2.43,20.04h6.89l2.33-19.98c.28-2.41.37-4.56.24-5.92Z"/>
  <path class="cls-1" d="M86.92,347.17c-3.6,0-6.03,2.15-7.44,3.95-.1.13-.31.43-.56.8l.48-4.21h-6.4l-3.87,32.87h6.71l2.01-16.52c.27-3.15,2.66-9.65,8.31-9.65.28,0,.57.03.84.06.31.03.62.06.91.06h.67l.67-7.18-2.32-.18Z"/>
  <path class="cls-1" d="M335.1,360.62c-.8-8.43-6.28-13.88-13.98-13.88h0c-4.74,0-8.78,1.69-11.69,4.88-3.53,3.88-5.21,9.79-4.6,16.22,1.2,12.71,11.23,13.7,14.27,13.7,4.58,0,8.31-1.55,11.09-4.61,4.63-5.08,5.24-12.89,4.91-16.31ZM319.11,376.48c-5.04,0-7.69-3.9-8.13-8.58-.64-6.78,2.2-16.09,10.01-16.09,3.66,0,7.37,2.4,7.96,8.64.52,5.46-1.49,16.03-9.83,16.03Z"/>
  <path class="cls-1" d="M255.02,360.62c-.8-8.43-6.29-13.88-13.99-13.88-4.74,0-8.78,1.69-11.69,4.88-3.53,3.88-5.2,9.79-4.6,16.21,1.2,12.71,11.23,13.7,14.27,13.7,4.58,0,8.31-1.55,11.09-4.6,4.63-5.08,5.24-12.89,4.91-16.31ZM239.03,376.48c-5.04,0-7.69-3.9-8.13-8.58-.64-6.78,2.2-16.09,10.01-16.09,3.66,0,7.37,2.4,7.96,8.64.52,5.46-1.49,16.03-9.83,16.03Z"/>
  <path class="cls-1" d="M214.3,347.71l-.45,3.66c-.05-.08-.11-.16-.17-.24-2.68-3.62-6.68-4.38-9.56-4.38-4.03,0-7.62,1.61-10.38,4.64-3.45,3.79-5.18,9.49-4.64,15.26.26,2.75.94,6.35,3.9,9.74,2.84,2.98,5.92,4.37,9.69,4.37,3.29,0,5.84-.9,7.86-2.79-.98,6.94-2.73,9.48-8.47,9.48-3.58,0-6.17-1.9-6.44-4.74l-.06-.67h-6.77s.08.81.08.81c.62,6.55,5.84,10.45,13.96,10.45,3.87,0,7.16-1.11,9.83-3.34,3.34-3.33,3.87-6.78,4.6-13.1l3.61-29.16h-6.59ZM203.54,375.7c-5.46,0-7.67-4.26-8.12-9.06-.72-7.62,3.08-14.47,9.38-14.47,4.08,0,7.69,2.58,8.21,8.1.66,6.96-2.32,15.43-9.47,15.43Z"/>
  <path class="cls-1" d="M176.89,369.49c-1.55,4.07-3.93,5.89-7.71,5.89-4.53,0-7.08-2.58-7.56-7.68-.05-.5-.06-.92-.04-1.29h22.96v-.92c0-1.28-.01-2.5-.26-5.11-.3-3.2-2.21-13.63-14.02-13.63h0c-4.22,0-7.89,1.58-10.6,4.55-3.52,3.86-5.19,9.76-4.58,16.18.82,8.67,6.23,14.06,14.12,14.06s12.44-3.91,14.32-11.61l.22-.91h-6.67l-.18.48ZM170.52,352.17c3.72,0,7.4,2.04,7.97,8.1l.14,1.44h-17.23c.77-5.16,3.6-9.54,9.12-9.54Z"/>
  <path class="cls-1" d="M118.21,360.62c-.8-8.43-6.29-13.88-13.99-13.88-4.74,0-8.78,1.69-11.69,4.88-3.53,3.88-5.21,9.79-4.6,16.22,1.2,12.71,11.23,13.69,14.27,13.69,4.58,0,8.31-1.55,11.09-4.6,4.63-5.08,5.24-12.89,4.91-16.31ZM102.22,376.48c-5.04,0-7.69-3.9-8.13-8.58-.64-6.78,2.2-16.09,10.01-16.09,3.66,0,7.37,2.4,7.96,8.64.52,5.46-1.49,16.03-9.83,16.03Z"/>
  <path class="cls-1" d="M58.7,347.71l-.45,3.66c-.05-.08-.11-.16-.17-.24-2.67-3.62-6.68-4.38-9.56-4.38-4.03,0-7.62,1.61-10.38,4.64-3.45,3.79-5.18,9.49-4.64,15.26.26,2.75.94,6.35,3.9,9.74,2.84,2.98,5.92,4.37,9.69,4.37,3.29,0,5.84-.9,7.86-2.79-.98,6.94-2.73,9.48-8.47,9.48-3.58,0-6.17-1.9-6.44-4.74l-.06-.67h-6.76l.08.81c.62,6.55,5.84,10.45,13.96,10.45,3.87,0,7.16-1.11,9.83-3.34,3.34-3.33,3.87-6.78,4.6-13.1l3.61-29.16h-6.59ZM47.94,375.7c-5.46,0-7.67-4.26-8.12-9.06-.72-7.62,3.08-14.47,9.38-14.47,4.08,0,7.69,2.58,8.21,8.1.66,6.96-2.32,15.43-9.47,15.43Z"/>
  <path class="cls-1" d="M29.27,375.45c-.38.06-.76.11-1.14.11-.97,0-1.59-.47-1.67-1.25-.05-.49.07-1.5.21-2.66l1.29-10.5-.73-.09.74.04c.39-2.89.6-4.48.44-6.18-.5-5.27-5.06-8.17-12.85-8.17-8,0-12.97,4.01-13.3,10.73l-.04.77h6.71l.02-.72c.1-3.31,2.24-4.99,6.35-4.99,5.39,0,6.29,1.88,6.46,3.71.12,1.24-.03,2.04-.49,2.58-.56.67-1.69,1.05-3.44,1.18l-7.28.48c-3.75.27-6.69,1.54-8.49,3.67-1.63,1.92-2.3,4.47-2.01,7.58.46,4.88,4.18,9.79,11.44,9.79,4.88,0,7.81-2.06,9.14-3.66.97,2.05,2.81,3.12,5.4,3.12h0c.97,0,1.98-.12,3.01-.25l.58-.07.58-5.37-.94.14ZM12.18,376.48c-3.06,0-5.67-1.56-6-5.04-.32-3.42,2.16-5.7,6.56-6.12,4.05-.36,7.39-.54,8.95-1.26-.44,7.38-2.85,12.43-9.51,12.43Z"/>
  <path class="cls-2" d="M912.85,157.84c-13.97,35.24-40.5,56.76-73.72,70.9.31-.48.61-.97.91-1.45,23.58-37.12,23.13-59.82,11.99-75.97,12.3-4.91,21.14-16.64,21.85-30.52,17.72,9.78,34.06,20.15,38.96,37.03"/>
  <path class="cls-2" d="M763.03,76.57c13.97-35.24,40.5-56.76,73.72-70.9-.31.48-.61.97-.91,1.45-23.58,37.12-23.13,59.82-11.99,75.97-12.3,4.91-21.14,16.64-21.85,30.52-17.72-9.78-34.06-20.15-38.96-37.03"/>
  <path class="cls-2" d="M834.36,228.74c-3.37-53.4-111.58-54.57-73.72-148.6,15.35,52.84,142.64,41.87,73.72,148.6"/>
  <path class="cls-2" d="M842.71,4.47c3.37,53.4,111.58,54.57,73.72,148.59-15.35-52.84-142.64-41.87-73.72-148.59"/>
  <path class="cls-1" d="M108.66,197.91h21.37l1.31-12.4.03-.24h0l.11-1.11,1.13-10.74c-3.63-3.81-9.76-5.41-16.29-4.3-7.36,1.24-10.03,6.71-16.01,2.03l-.06.51-2.69,26.27h11.1Z"/>
  <path class="cls-1" d="M803.89,220.76c-10-11.43-24.68-17.16-44.03-17.16s-35.19,5.73-47.81,17.16c-12.67,11.46-20.12,26.9-22.36,46.34-2.19,19.03,1.75,34.17,11.82,45.37,10.03,11.2,24.68,16.78,43.92,16.78s35.32-5.58,47.93-16.78c12.61-11.2,19.98-26.34,22.17-45.37,2.23-19.44-1.63-34.88-11.63-46.34ZM782.19,266.77c-1.36,11.8-4.9,20.79-10.67,26.94-5.77,6.18-13.46,9.25-23.08,9.25s-16.64-3.07-20.91-9.25c-4.31-6.14-5.79-15.14-4.43-26.94,1.39-12.06,4.95-21.24,10.69-27.5,5.7-6.26,13.4-9.36,23.05-9.36s16.6,3.11,20.94,9.36c4.34,6.26,5.8,15.44,4.41,27.5Z"/>
  <path class="cls-1" d="M706.07,202.67c-7.49-1.45-15.7-1.53-24.14-.1-22.12,3.74-30.17,20.17-48.15,6.09l-.88,7.67-5.78,50.3-6.84,59.48h32.44l7.75-66.58c1.1-9.59,4.36-16.79,9.77-21.51,5.41-4.76,13.06-7.12,22.95-7.12l12.88-28.24Z"/>
  <path class="cls-1" d="M622.83,208.66c-21.22,14.08-25.5-2.35-46.75-6.09-19.79-3.49-43.97,2.28-59.1,18.15-10.93,11.39-17.45,26.45-19.6,45.18-2.1,18.29,1.15,33.01,9.72,44.17,8.57,11.13,20.87,16.71,36.9,16.71,13.44,0,24.3-4.8,32.59-14.39l3.02-3.82-1.68,14.65c-1.13,9.85-3.95,16.94-8.46,21.2-4.47,4.27-11.32,6.41-20.47,6.41-7.45,0-12.91-.93-16.29-2.77-3.38-1.87-4.97-4.83-4.81-8.91h-35.22c-.59,11.16,3.66,19.93,12.82,26.26,9.16,6.33,22.12,9.48,38.85,9.48,20.35,0,35.9-4.5,46.54-13.45,10.65-8.95,17.03-22.86,19.2-41.74l6.1-53.08,5.71-49.69.95-8.28ZM584.87,265.79c-1.26,10.98-4.64,19.59-10.19,25.81-5.5,6.22-12.54,9.33-21.08,9.33s-14.63-3.07-18.68-9.18c-4.05-6.11-5.46-14.61-4.21-25.51,1.28-11.13,4.67-19.82,10.14-26.07,5.47-6.26,12.47-9.37,20.93-9.37s14.75,3.11,18.82,9.29c4.12,6.18,5.52,14.76,4.27,25.7Z"/>
  <path class="cls-1" d="M479.22,212.59c-8.13-5.98-19.85-8.99-35.15-8.99-17.61,0-31.38,3.33-41.29,9.96-9.92,6.66-15.98,16.65-18.28,30.01h31.05c.85-5.12,3.18-9.1,6.95-11.89,3.82-2.83,8.81-4.23,14.99-4.23,6.91,0,12.11,1.07,15.52,3.26,2.87,1.82,4.35,4.33,4.42,7.59,0,1.86-.53,3.73-1.63,5.55-1.07,1.83-2.46,3.08-4.12,3.79-3.91,1.68-8.69,2.87-14.33,3.55l-21.73,2.76c-12.16,1.61-21.79,5.51-28.8,11.78-7.01,6.27-11.14,14.61-12.39,25.03-1.19,9.85,1.33,17.83,7.52,23.88,10.47,10.18,34.13,13.12,49.56,10.62,22.12-3.58,30.17-19.28,48.15-5.82l1.01-8.43,1.17-9.68.03-.24.03-.24,4.43-36.82.77-6.44,2.47-20.51c1.24-10.35-2.22-18.51-10.34-24.49ZM452.83,278.59c-.3,2.47-1.02,4.98-2.15,7.56-1.16,2.61-2.4,4.58-3.76,5.91-7.03,6.77-15.74,10.17-26.13,10.17-4.75,0-8.3-1.29-10.62-3.87-2.35-2.61-3.24-6.16-2.69-10.74.48-3.97,2.34-7.27,5.6-9.92,3.29-2.61,7.79-4.4,13.55-5.4l12.26-2.08c6.32-1.18,11.49-2.76,15.51-4.72l-1.58,13.1Z"/>
  <path class="cls-1" d="M332.77,201.59c-4.91,0-9.5.52-13.76,1.54-.24.06-.49.12-.73.18-8.69,2.21-16.04,6.59-22.09,13.12l-2.99,3.48.63-5.5,5.86-50.95c-3.07-.46-6.15-.72-9.21-.76h-1.89c-7.51.1-14.88,1.43-21.7,3.91l-1,8.73h0l-17.46,150.77h32.44l7.73-67.29c1.07-9.33,4.18-16.52,9.34-21.47,5.13-4.98,11.98-7.45,20.51-7.45,6.8,0,11.62,1.76,14.49,5.32,2.88,3.52,3.91,8.99,3.06,16.37l-8.56,74.52h32.44l9.59-82.3c1.54-13.22-.96-23.56-7.48-31.02-6.48-7.45-16.25-11.2-29.22-11.2Z"/>
  <path class="cls-1" d="M187.66,202.57c-22.12,3.74-30.17,20.17-48.15,6.09l-13.5,117.45h32.44l7.51-65.38c1.07-9.33,4.18-16.52,9.34-21.47,5.13-4.98,11.98-7.45,20.51-7.45,6.8,0,11.62,1.76,14.49,5.32,2.88,3.52,3.91,8.99,3.06,16.37l-8.34,72.61h32.44l9.01-78.38c3.83-33.35-25.77-50.76-58.82-45.16Z"/>
  <polygon class="cls-1" points="112.52 206.75 96.34 206.75 82.62 326.11 98.92 326.11 115.06 326.11 128.78 206.75 112.52 206.75"/>
  <path class="cls-1" d="M48.56,165.48c-3.07-.46-6.15-.72-9.21-.76h-1.89c-7.51.1-14.88,1.43-21.7,3.91L.45,307.05l-.36,3.24H.1c-.01.14-.03.27-.04.41H.06s-.03.4-.03.4h0s-.02.4-.02.4H0S0,311.9,0,311.9v.39s.01.39.01.39H.01s.02.39.02.39H.04s.03.39.03.39H.07s.04.38.04.38H.11s.05.38.05.38H.16s.06.38.06.38l.07.37H.29s.08.37.08.37l.09.36h0l.1.36.11.36.12.35.12.35.13.34.14.34h0l.15.33h0l.16.33.17.32.17.32h0l.18.31h0l.19.31.2.3h0l.2.3.21.29.22.28h0s.23.28.23.28h0l.23.27.24.26h0s.25.26.25.26h0l.26.25.26.25.27.24h0s.28.23.28.23l.28.22h0s.29.22.29.22h0s.29.21.29.21l.3.2.31.19h0s.31.19.31.19h0s.32.18.32.18l.32.17.33.16.33.15.34.15.34.14h0s.35.13.35.13l.35.12h0l.36.11.36.1h0l.37.09h0l.37.08h0l.38.07h0l.38.06h0l.39.06.39.04.39.04h0c.13.01.26.02.4.02h0l.4.02h.23s.01.05.01.05h16.14s29.52-.04,29.52-.04h8.17s3.94-.01,3.94-.01l3.73-32.44-41.63.05,14.73-128.18Z"/>
</svg>