<?xml version="1.0" encoding="UTF-8"?>
<svg id="Layer_1" data-name="Layer 1" xmlns="http://www.w3.org/2000/svg" viewBox="0 0 924.45 393.31">
  <defs>
    <style>
      .cls-1, .cls-2 {
        fill: #fff;
      }

      .cls-2 {
        fill-rule: evenodd;
      }
    </style>
  </defs>
  <path class="cls-2" d="M912.85,157.84c-13.97,35.24-40.5,56.76-73.72,70.9.31-.48.61-.97.91-1.45,23.58-37.12,23.13-59.82,11.99-75.97,12.3-4.91,21.14-16.64,21.85-30.52,17.72,9.78,34.06,20.15,38.96,37.03"/>
  <path class="cls-2" d="M763.03,76.57c13.97-35.24,40.5-56.76,73.72-70.9-.31.48-.61.97-.91,1.45-23.58,37.12-23.13,59.82-11.99,75.97-12.3,4.91-21.14,16.64-21.85,30.52-17.72-9.78-34.06-20.15-38.96-37.03"/>
  <path class="cls-2" d="M834.36,228.74c-3.37-53.4-111.58-54.57-73.72-148.6,15.35,52.84,142.64,41.87,73.72,148.6"/>
  <path class="cls-2" d="M842.71,4.47c3.37,53.4,111.58,54.57,73.72,148.59-15.35-52.84-142.64-41.87-73.72-148.59"/>
  <path class="cls-1" d="M108.66,197.91h21.37l1.31-12.4.03-.24h0l.11-1.11,1.13-10.74c-3.63-3.81-9.76-5.41-16.29-4.3-7.36,1.24-10.03,6.71-16.01,2.03l-.06.51-2.69,26.27h11.1Z"/>
  <path class="cls-1" d="M803.89,220.76c-10-11.43-24.68-17.16-44.03-17.16s-35.19,5.73-47.81,17.16c-12.67,11.46-20.12,26.9-22.36,46.34-2.19,19.03,1.75,34.17,11.82,45.37,10.03,11.2,24.68,16.78,43.92,16.78s35.32-5.58,47.93-16.78c12.61-11.2,19.98-26.34,22.17-45.37,2.23-19.44-1.63-34.88-11.63-46.34ZM782.19,266.77c-1.36,11.8-4.9,20.79-10.67,26.94-5.77,6.18-13.46,9.25-23.08,9.25s-16.64-3.07-20.91-9.25c-4.31-6.14-5.79-15.14-4.43-26.94,1.39-12.06,4.95-21.24,10.69-27.5,5.7-6.26,13.4-9.36,23.05-9.36s16.6,3.11,20.94,9.36c4.34,6.26,5.8,15.44,4.41,27.5Z"/>
  <path class="cls-1" d="M706.07,202.67c-7.49-1.45-15.7-1.53-24.14-.1-22.12,3.74-30.17,20.17-48.15,6.09l-.88,7.67-5.78,50.3-6.84,59.48h32.44l7.75-66.58c1.1-9.59,4.36-16.79,9.77-21.51,5.41-4.76,13.06-7.12,22.95-7.12l12.88-28.24Z"/>
  <path class="cls-1" d="M622.83,208.66c-21.22,14.08-25.5-2.35-46.75-6.09-19.79-3.49-43.97,2.28-59.1,18.15-10.93,11.39-17.45,26.45-19.6,45.18-2.1,18.29,1.15,33.01,9.72,44.17,8.57,11.13,20.87,16.71,36.9,16.71,13.44,0,24.3-4.8,32.59-14.39l3.02-3.82-1.68,14.65c-1.13,9.85-3.95,16.94-8.46,21.2-4.47,4.27-11.32,6.41-20.47,6.41-7.45,0-12.91-.93-16.29-2.77-3.38-1.87-4.97-4.83-4.81-8.91h-35.22c-.59,11.16,3.66,19.93,12.82,26.26,9.16,6.33,22.12,9.48,38.85,9.48,20.35,0,35.9-4.5,46.54-13.45,10.65-8.95,17.03-22.86,19.2-41.74l6.1-53.08,5.71-49.69.95-8.28ZM584.87,265.79c-1.26,10.98-4.64,19.59-10.19,25.81-5.5,6.22-12.54,9.33-21.08,9.33s-14.63-3.07-18.68-9.18c-4.05-6.11-5.46-14.61-4.21-25.51,1.28-11.13,4.67-19.82,10.14-26.07,5.47-6.26,12.47-9.37,20.93-9.37s14.75,3.11,18.82,9.29c4.12,6.18,5.52,14.76,4.27,25.7Z"/>
  <path class="cls-1" d="M479.22,212.59c-8.13-5.98-19.85-8.99-35.15-8.99-17.61,0-31.38,3.33-41.29,9.96-9.92,6.66-15.98,16.65-18.28,30.01h31.05c.85-5.12,3.18-9.1,6.95-11.89,3.82-2.83,8.81-4.23,14.99-4.23,6.91,0,12.11,1.07,15.52,3.26,2.87,1.82,4.35,4.33,4.42,7.59,0,1.86-.53,3.73-1.63,5.55-1.07,1.83-2.46,3.08-4.12,3.79-3.91,1.68-8.69,2.87-14.33,3.55l-21.73,2.76c-12.16,1.61-21.79,5.51-28.8,11.78-7.01,6.27-11.14,14.61-12.39,25.03-1.19,9.85,1.33,17.83,7.52,23.88,10.47,10.18,34.13,13.12,49.56,10.62,22.12-3.58,30.17-19.28,48.15-5.82l1.01-8.43,1.17-9.68.03-.24.03-.24,4.43-36.82.77-6.44,2.47-20.51c1.24-10.35-2.22-18.51-10.34-24.49ZM452.83,278.59c-.3,2.47-1.02,4.98-2.15,7.56-1.16,2.61-2.4,4.58-3.76,5.91-7.03,6.77-15.74,10.17-26.13,10.17-4.75,0-8.3-1.29-10.62-3.87-2.35-2.61-3.24-6.16-2.69-10.74.48-3.97,2.34-7.27,5.6-9.92,3.29-2.61,7.79-4.4,13.55-5.4l12.26-2.08c6.32-1.18,11.49-2.76,15.51-4.72l-1.58,13.1Z"/>
  <path class="cls-1" d="M332.77,201.59c-4.91,0-9.5.52-13.76,1.54-.24.06-.49.12-.73.18-8.69,2.21-16.04,6.59-22.09,13.12l-2.99,3.48.63-5.5,5.86-50.95c-3.07-.46-6.15-.72-9.21-.76h-1.89c-7.51.1-14.88,1.43-21.7,3.91l-1,8.73h0l-17.46,150.77h32.44l7.73-67.29c1.07-9.33,4.18-16.52,9.34-21.47,5.13-4.98,11.98-7.45,20.51-7.45,6.8,0,11.62,1.76,14.49,5.32,2.88,3.52,3.91,8.99,3.06,16.37l-8.56,74.52h32.44l9.59-82.3c1.54-13.22-.96-23.56-7.48-31.02-6.48-7.45-16.25-11.2-29.22-11.2Z"/>
  <path class="cls-1" d="M187.66,202.57c-22.12,3.74-30.17,20.17-48.15,6.09l-13.5,117.45h32.44l7.51-65.38c1.07-9.33,4.18-16.52,9.34-21.47,5.13-4.98,11.98-7.45,20.51-7.45,6.8,0,11.62,1.76,14.49,5.32,2.88,3.52,3.91,8.99,3.06,16.37l-8.34,72.61h32.44l9.01-78.38c3.83-33.35-25.77-50.76-58.82-45.16Z"/>
  <polygon class="cls-1" points="112.52 206.75 96.34 206.75 82.62 326.11 98.92 326.11 115.06 326.11 128.78 206.75 112.52 206.75"/>
  <path class="cls-1" d="M48.56,165.48c-3.07-.46-6.15-.72-9.21-.76h-1.89c-7.51.1-14.88,1.43-21.7,3.91L.45,307.05l-.36,3.24H.1c-.01.14-.03.27-.04.41H.06s-.03.4-.03.4h0s-.02.4-.02.4H0S0,311.9,0,311.9v.39s.01.39.01.39H.01s.02.39.02.39H.04s.03.39.03.39H.07s.04.38.04.38H.11s.05.38.05.38H.16s.06.38.06.38l.07.37H.29s.08.37.08.37l.09.36h0l.1.36.11.36.12.35.12.35.13.34.14.34h0l.15.33h0l.16.33.17.32.17.32h0l.18.31h0l.19.31.2.3h0l.2.3.21.29.22.28h0s.23.28.23.28h0l.23.27.24.26h0s.25.26.25.26h0l.26.25.26.25.27.24h0s.28.23.28.23l.28.22h0s.29.22.29.22h0s.29.21.29.21l.3.2.31.19h0s.31.19.31.19h0s.32.18.32.18l.32.17.33.16.33.15.34.15.34.14h0s.35.13.35.13l.35.12h0l.36.11.36.1h0l.37.09h0l.37.08h0l.38.07h0l.38.06h0l.39.06.39.04.39.04h0c.13.01.26.02.4.02h0l.4.02h.23s.01.05.01.05h16.14s29.52-.04,29.52-.04h8.17s3.94-.01,3.94-.01l3.73-32.44-41.63.05,14.73-128.18Z"/>
</svg>