<?xml version="1.0" encoding="UTF-8"?>
<svg id="Layer_1" data-name="Layer 1" xmlns="http://www.w3.org/2000/svg" viewBox="0 0 1920 1080">
  <defs>
    <style>
      .cls-1, .cls-2 {
        fill: #fff;
      }

      .cls-2 {
        fill-rule: evenodd;
      }
    </style>
  </defs>
  <path class="cls-1" d="M606.7,972.86v19.53h4.06c4.31,0,7.61-.76,9.39-2.28,1.78-1.52,2.79-4.06,2.79-7.61,0-3.3-1.01-5.58-2.79-7.36-1.78-1.52-4.57-2.28-8.37-2.28h-5.07ZM606.7,947.49v18.01h3.81c4.06,0,6.85-.76,8.63-2.03,1.52-1.52,2.54-3.81,2.54-7.1,0-3.04-1.01-5.33-2.54-6.85-1.78-1.52-4.31-2.03-7.61-2.03h-4.82ZM590.46,1000v-60.12h27.14c6.6,0,11.67,1.52,15.47,4.31,3.55,3.04,5.58,7.1,5.58,12.18,0,3.55-1.27,6.6-3.3,8.88-2.03,2.03-5.07,3.55-9.39,4.31,4.82,1.27,8.37,3.04,10.91,5.58,2.54,2.54,3.81,5.83,3.81,9.39,0,5.07-1.78,8.88-5.33,11.42-3.55,2.79-8.88,4.06-15.47,4.06h-29.43ZM667.58,1000h-16.74v-60.12h16.74v60.12ZM696.25,970.07c0,7.61,1.27,13.45,3.81,17.5,2.54,4.31,5.83,6.34,10.15,6.34s7.61-2.03,10.15-6.34c2.28-4.06,3.55-9.89,3.55-17.5s-1.27-13.45-3.55-17.5c-2.54-4.31-5.83-6.34-10.15-6.34s-7.61,2.03-10.15,6.34c-2.54,4.06-3.81,9.89-3.81,17.5h0ZM710.2,938.86c4.06,0,8.12.51,11.92,2.03,3.81,1.27,7.1,3.3,9.89,5.58,3.3,3.04,5.83,6.6,7.36,10.4,1.78,4.06,2.79,8.37,2.79,13.19s-1.01,9.13-2.79,13.19c-1.52,3.81-4.06,7.36-7.36,10.4-2.79,2.54-6.09,4.31-9.89,5.83-3.81,1.27-7.86,2.03-11.92,2.03-4.31,0-8.12-.76-11.92-2.28-3.81-1.27-7.1-3.3-9.89-5.58-3.3-3.04-5.83-6.6-7.61-10.65-1.78-3.81-2.54-8.37-2.54-12.94,0-4.82,1.01-9.13,2.54-13.19,1.78-4.06,4.31-7.36,7.61-10.4,2.79-2.54,6.09-4.31,9.64-5.83,3.81-1.27,7.86-1.78,12.18-1.78h0ZM752.56,1000v-60.12h38.31v8.12h-21.56v17.5h20.55v8.12h-20.55v26.38h-16.74ZM802.03,1000v-60.12h37.54v8.12h-20.8v17.5h19.79v8.12h-19.79v18.27h22.07v8.12h-38.81ZM853.27,1000v-60.12h26.13c7.61,0,13.45,1.78,17.76,5.07,4.31,3.3,6.34,7.61,6.34,13.45,0,4.06-1.01,7.36-3.3,10.15-2.54,2.54-5.83,4.57-10.65,5.58l14.71,25.88h-19.03l-14.46-30.7h3.81c4.06,0,7.1-.76,9.13-2.54,2.03-1.78,3.04-4.57,3.04-8.12,0-3.81-1.01-6.6-3.04-8.63-2.28-1.78-5.33-2.54-9.89-2.54h-4.31v52.51h-16.24ZM924.31,1000v-52h-15.98v-8.12h48.71v8.12h-15.98v52h-16.74ZM982.15,1000h-16.74v-60.12h16.74v60.12ZM996.86,1000v-60.12h16.74v52h21.82v8.12h-38.56ZM1061.8,1000h-16.74v-60.12h16.74v60.12ZM1072.2,947.99v-8.12h50.48l-28.92,52h27.14v8.12h-50.23l28.67-52h-27.14ZM1140.44,974.63h14.71l-7.61-21.56-7.1,21.56ZM1123.19,1000l20.8-60.12h16.24l21.82,60.12h-17.76l-6.34-17.76h-20.04l-6.09,17.76h-8.63ZM1189.15,1000v-60.12h18.52l19.79,30.7v-30.7h8.88v60.12h-9.64l-28.67-43.89v43.89h-8.88ZM1260.43,1000v-52h-15.98v-8.12h48.96v8.12h-15.98v52h-17ZM1301.53,1000v-60.12h37.54v8.12h-20.8v17.5h19.53v8.12h-19.53v18.27h21.82v8.12h-38.56ZM1357.34,984.78c1.27,2.79,2.79,5.07,4.57,6.6,2.03,1.52,4.06,2.28,6.09,2.28,2.28,0,4.31-.76,5.58-2.03,1.52-1.27,2.28-3.04,2.28-5.07,0-1.52-.51-3.04-1.52-4.31-1.27-1.52-3.04-2.79-5.58-4.06l-2.28-1.27c-5.58-3.04-8.88-5.07-9.89-5.83-2.28-2.03-3.81-4.06-4.82-6.09-1.01-1.78-1.52-4.06-1.52-6.85,0-5.83,2.03-10.4,5.83-14.21,4.06-3.55,8.88-5.33,15.22-5.33,4.31,0,8.12,1.01,11.42,3.04,3.3,1.78,5.83,4.82,7.86,8.37l-6.85,4.82c-1.27-2.79-2.79-5.07-4.57-6.34-1.78-1.52-4.06-2.28-6.6-2.28-2.03,0-3.81.76-5.33,2.03-1.27,1.27-2.03,3.04-2.03,5.07,0,1.52.51,3.04,1.78,4.31,1.01,1.27,3.3,2.79,6.6,4.31l1.01.76c6.34,3.04,9.89,5.07,11.16,6.09,2.28,1.78,3.81,3.55,4.82,5.58,1.01,2.03,1.52,4.57,1.52,7.1,0,5.83-2.03,10.65-6.34,14.46-4.06,3.81-9.39,5.58-15.98,5.58-4.57,0-8.88-1.01-12.43-3.04-3.55-2.03-6.34-5.07-8.12-8.88l8.12-4.82Z"/>
  <path class="cls-2" d="M422.26,384.9c0,4.69,1.04,7.82,4.17,10.95,44.34,33.9,44.86,34.43,92.85,6.26,162.74-97.02,334.87-165.87,527.34-173.17,29.21-1.56,58.94-.52,88.67.52,31.3,1.56,50.07-10.43,52.16-44.34,2.09-34.95,2.09-70.42-1.56-105.36-3.13-30.77-19.82-41.21-49.03-37.03-77.2,10.95-193.52,41.73-280.62,74.07-145.53,57.38-281.14,131.97-404.76,228.98-13.04,10.43-29.21,19.3-29.21,39.12h0Z"/>
  <path class="cls-2" d="M500.5,437.06c-2.09,3.13-1.04,5.22,1.04,6.78,34.43,34.43,70.42,45.9,119.97,25.56,146.05-59.98,296.79-78.76,451.19-32.86,26.08,7.82,44.86-1.56,54.77-27.12,7.82-18.78,16.69-37.56,22.95-56.85,11.48-33.9,4.69-46.42-30.77-53.2-94.93-19.3-190.39-16.17-285.32,1.56-64.68,11.48-126.23,32.34-187.26,54.77,0,0-106.93,42.25-146.57,81.37h0Z"/>
  <path class="cls-2" d="M874.49,454.27c-79.81-7.82-126.23.52-193.52,12-4.69,1.04-55.81,8.87-55.81,30.25,0,18.26,23.47,21.91,38.6,26.6,89.19,29.73,175.26,65.2,241.5,136.66,19.3,20.34,42.77,16.17,60.51-3.13,29.73-31.82,56.33-65.72,79.81-102.76,15.65-24.52,8.35-42.77-17.21-55.29-38.08-18.78-123.62-42.25-153.87-44.34h0Z"/>
  <path class="cls-2" d="M1851.01,843.99c-7.36-7.36-16.24-11.16-26.38-11.16h-15.73c-11.92,0-22.07-4.06-30.19-12.68-8.37-8.63-12.68-18.77-12.68-30.7v-13.7h38.81c10.4,0,19.03-3.81,26.38-11.16,7.36-7.36,11.16-17.76,11.16-31.2h-76.36v-31.71c0-10.65-3.81-19.79-11.42-27.65-7.86-7.61-18.52-11.42-32.72-11.42v70.78h-31.46c0,13.45,4.06,23.34,10.91,31.2,7.61,8.37,20.55,11.16,20.55,11.16v13.7c0,23.59,8.63,43.89,25.62,60.63,17,17,37.54,25.37,61.39,25.37h53.27c0-13.7-3.81-24.1-11.16-31.46h0Z"/>
  <path class="cls-2" d="M494.06,843.99c-7.36-7.36-16.24-11.16-26.64-11.16h-15.47c-11.92,0-22.07-4.06-30.44-12.68-8.37-8.63-12.43-18.77-12.43-30.7v-13.7h38.81c10.15,0,19.03-3.81,26.38-11.16,7.36-7.36,11.16-17.76,11.16-31.2h-76.36v-31.71c0-10.65-3.81-19.79-11.42-27.65-7.86-7.61-18.77-11.42-32.72-11.42v70.78h-31.71c0,13.45,4.31,23.34,11.16,31.2,7.36,8.37,20.55,11.16,20.55,11.16v13.7c0,23.59,8.37,43.89,25.37,60.63,17.25,17,37.54,25.37,61.64,25.37h53.02c0-13.7-3.55-24.1-10.91-31.46h0Z"/>
  <path class="cls-2" d="M314.96,701.67c0-10.65-3.81-19.79-11.42-27.65-7.86-7.61-18.52-11.42-32.72-11.42v23.09c18.52,0,33.23,5.58,44.14,15.98h0Z"/>
  <path class="cls-2" d="M282.49,863.77c-7.86-7.61-11.67-17-11.67-27.65v-133.18c14.21,0,24.86,3.81,32.72,11.67,7.61,7.61,11.42,16.74,11.42,27.4v133.44c-13.95,0-24.86-4.06-32.47-11.67h0Z"/>
  <path class="cls-2" d="M666.82,863.77c-7.86-7.61-11.67-17-11.67-27.65v-46.68c0-11.92-4.06-22.32-12.43-30.95-8.37-8.88-18.52-13.19-30.44-13.19s-22.07,4.31-30.44,13.19c-8.37,8.63-12.43,19.03-12.43,30.95v46.68c0,10.65-3.81,20.04-11.67,27.65-7.61,7.61-18.52,11.67-32.72,11.67v-212.84c14.21,0,25.11,3.81,32.72,11.42,7.86,7.86,11.67,17,11.67,27.65v10.91c10.91-6.34,25.11-9.64,42.87-9.64,24.1,0,44.39,8.37,61.64,25.37,17,17,25.37,37.29,25.37,61.14v86c-13.95,0-24.86-4.06-32.47-11.67h0Z"/>
  <path class="cls-2" d="M801.27,745.3c-12.18,0-22.32,4.31-30.44,12.94-8.37,8.63-12.43,19.03-12.43,31.2s4.06,22.07,12.43,30.7c8.37,8.63,18.52,12.68,30.44,12.68s22.07-4.06,30.44-12.68c8.37-8.63,12.43-18.77,12.43-30.7s-4.06-22.58-12.43-31.2c-8.37-8.63-18.52-12.94-30.44-12.94h0ZM801.27,875.44c-24.1,0-44.39-8.37-61.64-25.37-17-16.74-25.37-37.04-25.37-60.63s8.37-44.14,25.37-61.14c17.25-17,37.54-25.37,61.64-25.37s44.39,8.37,61.39,25.37c17.25,17,25.88,37.29,25.88,61.14s-8.63,43.89-25.88,60.63c-17,17-37.54,25.37-61.39,25.37h0Z"/>
  <path class="cls-2" d="M1081.08,704.71c-12.18,0-22.32,4.31-30.44,12.94-8.37,8.88-12.43,19.03-12.43,31.2v43.63h42.87c11.92,0,22.07-4.31,30.44-12.94,8.37-8.63,12.43-18.77,12.43-30.7s-4.06-22.32-12.43-31.2c-8.37-8.63-18.52-12.94-30.44-12.94h0ZM1081.08,834.85h-42.87v1.27c0,10.65-4.06,20.04-11.67,27.65-7.61,7.61-18.52,11.67-32.72,11.67v-126.59c0-23.85,8.63-44.14,25.62-61.14,17.25-17,37.8-25.37,61.64-25.37s44.65,8.37,61.64,25.37c17.25,17,25.88,37.29,25.88,61.14s-8.63,44.14-25.88,60.88c-17,16.74-37.54,25.11-61.64,25.11h0Z"/>
  <path class="cls-2" d="M1269.82,875.44c-23.85,0-44.39-8.37-61.64-25.37-17-16.74-25.62-37.04-25.62-60.63v-87.77c13.95,0,24.86,4.06,32.72,11.67,7.61,7.61,11.42,17,11.42,27.65v48.45c0,11.92,4.31,22.07,12.68,30.7,8.37,8.63,18.52,12.68,30.44,12.68h15.47c10.4,0,19.28,3.81,26.38,11.16,7.36,7.36,11.16,17.76,11.16,31.46h-53.02Z"/>
  <path class="cls-2" d="M207.65,875.44c-24.1,0-44.39-8.37-61.64-25.37-17-16.74-25.62-37.04-25.62-60.63v-126.84c13.95,0,24.86,3.81,32.72,11.42,7.61,7.86,11.42,17,11.42,27.65v87.77c0,11.92,4.31,22.07,12.68,30.7,8.37,8.63,18.52,12.68,30.44,12.68h15.47c10.4,0,19.28,3.81,26.38,11.16,7.36,7.36,11.16,17.76,11.16,31.46h-53.02Z"/>
  <path class="cls-2" d="M1439.03,789.44c0-12.18-4.31-22.58-12.43-31.2-8.37-8.63-18.52-12.94-30.44-12.94s-22.32,4.31-30.7,12.94c-8.12,8.63-12.43,19.03-12.43,31.2s4.31,22.07,12.68,30.7c8.37,8.63,18.52,12.68,30.44,12.68h42.87v-43.38ZM1396.15,875.44c-23.85,0-44.39-8.37-61.64-25.37-17-16.74-25.62-37.04-25.62-60.63s8.63-44.14,25.62-61.14c17.25-17,37.8-25.37,61.64-25.37s44.39,8.37,61.64,25.37c17.25,17,25.88,37.29,25.88,61.14v86h-87.52Z"/>
  <path class="cls-2" d="M1641.97,863.77c-7.61-7.61-11.42-17-11.42-27.65v-46.68c0-11.92-4.31-22.32-12.68-30.95-8.12-8.88-18.27-13.19-30.19-13.19s-22.07,4.31-30.44,13.19c-8.37,8.63-12.68,19.03-12.68,30.95v46.68c0,10.65-3.81,20.04-11.42,27.65-7.86,7.61-18.77,11.67-32.72,11.67v-86c0-24.1,8.63-44.39,25.62-61.39,17.25-16.74,37.8-25.11,61.64-25.11s44.39,8.37,61.39,25.37c17,17,25.62,37.29,25.62,61.14v86c-14.21,0-24.86-4.06-32.72-11.67h0Z"/>
</svg>