<?xml version="1.0" encoding="UTF-8"?>
<svg id="Layer_1" data-name="Layer 1" xmlns="http://www.w3.org/2000/svg" viewBox="0 0 1920 365.88">
  <defs>
    <style>
      .cls-1 {
        fill: #083f86;
      }

      .cls-1, .cls-2, .cls-3 {
        fill-rule: evenodd;
      }

      .cls-2 {
        fill: #f9ae4a;
      }

      .cls-3 {
        fill: #056739;
      }
    </style>
  </defs>
  <path d="M887.71,334.05v14.28h2.97c3.15,0,5.56-.56,6.86-1.67,1.3-1.11,2.04-2.97,2.04-5.56,0-2.41-.74-4.08-2.04-5.38-1.3-1.11-3.34-1.67-6.12-1.67h-3.71ZM887.71,315.51v13.17h2.78c2.97,0,5.01-.56,6.31-1.48,1.11-1.11,1.85-2.78,1.85-5.19,0-2.23-.74-3.89-1.85-5.01-1.3-1.11-3.15-1.48-5.56-1.48h-3.52ZM875.84,353.89v-43.95h19.84c4.82,0,8.53,1.11,11.31,3.15,2.6,2.23,4.08,5.19,4.08,8.9,0,2.6-.93,4.82-2.41,6.49-1.48,1.48-3.71,2.6-6.86,3.15,3.52.93,6.12,2.23,7.97,4.08,1.85,1.85,2.78,4.27,2.78,6.86,0,3.71-1.3,6.49-3.89,8.35-2.6,2.04-6.49,2.97-11.31,2.97h-21.51ZM932.22,353.89h-12.24v-43.95h12.24v43.95ZM953.17,332.01c0,5.56.93,9.83,2.78,12.8,1.85,3.15,4.27,4.64,7.42,4.64s5.56-1.48,7.42-4.64c1.67-2.97,2.6-7.23,2.6-12.8s-.93-9.83-2.6-12.8c-1.85-3.15-4.27-4.64-7.42-4.64s-5.56,1.48-7.42,4.64c-1.85,2.97-2.78,7.23-2.78,12.8h0ZM963.37,309.2c2.97,0,5.93.37,8.72,1.48,2.78.93,5.19,2.41,7.23,4.08,2.41,2.23,4.27,4.82,5.38,7.6,1.3,2.97,2.04,6.12,2.04,9.64s-.74,6.68-2.04,9.64c-1.11,2.78-2.97,5.38-5.38,7.6-2.04,1.85-4.45,3.15-7.23,4.27-2.78.93-5.75,1.48-8.72,1.48-3.15,0-5.93-.56-8.72-1.67-2.78-.93-5.19-2.41-7.23-4.08-2.41-2.23-4.27-4.82-5.56-7.79-1.3-2.78-1.85-6.12-1.85-9.46,0-3.52.74-6.68,1.85-9.64,1.3-2.97,3.15-5.38,5.56-7.6,2.04-1.85,4.45-3.15,7.05-4.27,2.78-.93,5.75-1.3,8.9-1.3h0ZM994.34,353.89v-43.95h28v5.93h-15.76v12.8h15.02v5.93h-15.02v19.29h-12.24ZM1030.5,353.89v-43.95h27.45v5.93h-15.21v12.8h14.46v5.93h-14.46v13.35h16.13v5.93h-28.37ZM1067.96,353.89v-43.95h19.1c5.56,0,9.83,1.3,12.98,3.71,3.15,2.41,4.64,5.56,4.64,9.83,0,2.97-.74,5.38-2.41,7.42-1.85,1.85-4.27,3.34-7.79,4.08l10.76,18.92h-13.91l-10.57-22.44h2.78c2.97,0,5.19-.56,6.68-1.85,1.48-1.3,2.23-3.34,2.23-5.93,0-2.78-.74-4.82-2.23-6.31-1.67-1.3-3.89-1.85-7.23-1.85h-3.15v38.39h-11.87ZM1119.89,353.89v-38.02h-11.68v-5.93h35.61v5.93h-11.68v38.02h-12.24ZM1162.17,353.89h-12.24v-43.95h12.24v43.95ZM1172.93,353.89v-43.95h12.24v38.02h15.95v5.93h-28.19ZM1220.4,353.89h-12.24v-43.95h12.24v43.95ZM1228,315.88v-5.93h36.9l-21.14,38.02h19.84v5.93h-36.72l20.96-38.02h-19.84ZM1277.89,335.35h10.76l-5.56-15.76-5.19,15.76ZM1265.28,353.89l15.21-43.95h11.87l15.95,43.95h-12.98l-4.64-12.98h-14.65l-4.45,12.98h-6.31ZM1313.5,353.89v-43.95h13.54l14.46,22.44v-22.44h6.49v43.95h-7.05l-20.96-32.08v32.08h-6.49ZM1365.61,353.89v-38.02h-11.68v-5.93h35.79v5.93h-11.68v38.02h-12.42ZM1395.65,353.89v-43.95h27.45v5.93h-15.21v12.8h14.28v5.93h-14.28v13.35h15.95v5.93h-28.19ZM1436.45,342.77c.93,2.04,2.04,3.71,3.34,4.82,1.48,1.11,2.97,1.67,4.45,1.67,1.67,0,3.15-.56,4.08-1.48,1.11-.93,1.67-2.23,1.67-3.71,0-1.11-.37-2.23-1.11-3.15-.93-1.11-2.23-2.04-4.08-2.97l-1.67-.93c-4.08-2.23-6.49-3.71-7.23-4.27-1.67-1.48-2.78-2.97-3.52-4.45-.74-1.3-1.11-2.97-1.11-5.01,0-4.27,1.48-7.6,4.27-10.39,2.97-2.6,6.49-3.89,11.13-3.89,3.15,0,5.93.74,8.35,2.23,2.41,1.3,4.27,3.52,5.75,6.12l-5.01,3.52c-.93-2.04-2.04-3.71-3.34-4.64-1.3-1.11-2.97-1.67-4.82-1.67-1.48,0-2.78.56-3.89,1.48-.93.93-1.48,2.23-1.48,3.71,0,1.11.37,2.23,1.3,3.15.74.93,2.41,2.04,4.82,3.15l.74.56c4.64,2.23,7.23,3.71,8.16,4.45,1.67,1.3,2.78,2.6,3.52,4.08s1.11,3.34,1.11,5.19c0,4.27-1.48,7.79-4.64,10.57-2.97,2.78-6.86,4.08-11.68,4.08-3.34,0-6.49-.74-9.09-2.23-2.6-1.48-4.64-3.71-5.93-6.49l5.93-3.52Z"/>
  <path class="cls-1" d="M65.91,199.41c0,2.48.55,4.13,2.2,5.79,23.42,17.91,23.7,18.19,49.05,3.31,85.97-51.25,176.9-87.63,278.58-91.48,15.43-.83,31.14-.28,46.84.28,16.53.83,26.45-5.51,27.56-23.42,1.1-18.46,1.1-37.2-.83-55.66-1.65-16.26-10.47-21.77-25.9-19.56-40.78,5.79-102.23,22.04-148.25,39.13-76.88,30.31-148.52,69.71-213.83,120.97-6.89,5.51-15.43,10.2-15.43,20.67h0Z"/>
  <path class="cls-2" d="M107.24,226.97c-1.1,1.65-.55,2.76.55,3.58,18.19,18.19,37.2,24.25,63.38,13.5,77.15-31.69,156.79-41.61,238.35-17.36,13.78,4.13,23.7-.83,28.93-14.33,4.13-9.92,8.82-19.84,12.12-30.04,6.06-17.91,2.48-24.52-16.26-28.11-50.15-10.2-100.58-8.54-150.73.83-34.17,6.06-66.68,17.08-98.92,28.93,0,0-56.49,22.32-77.43,42.99h0Z"/>
  <path class="cls-3" d="M304.81,236.06c-42.16-4.13-66.68.28-102.23,6.34-2.48.55-29.48,4.68-29.48,15.98,0,9.64,12.4,11.57,20.39,14.05,47.12,15.71,92.59,34.44,127.58,72.19,10.2,10.75,22.6,8.54,31.96-1.65,15.71-16.81,29.76-34.72,42.16-54.28,8.27-12.95,4.41-22.6-9.09-29.21-20.12-9.92-65.31-22.32-81.29-23.42h0Z"/>
  <path class="cls-1" d="M1797.33,239.84c-5.38-5.38-11.87-8.16-19.29-8.16h-11.5c-8.72,0-16.13-2.97-22.07-9.27-6.12-6.31-9.27-13.72-9.27-22.44v-10.01h28.37c7.6,0,13.91-2.78,19.29-8.16,5.38-5.38,8.16-12.98,8.16-22.81h-55.82v-23.18c0-7.79-2.78-14.46-8.35-20.21-5.75-5.56-13.54-8.35-23.92-8.35v51.74h-23c0,9.83,2.97,17.06,7.97,22.81,5.56,6.12,15.02,8.16,15.02,8.16v10.01c0,17.25,6.31,32.08,18.73,44.32,12.42,12.42,27.45,18.54,44.88,18.54h38.94c0-10.01-2.78-17.62-8.16-23h0Z"/>
  <path class="cls-1" d="M805.37,239.84c-5.38-5.38-11.87-8.16-19.47-8.16h-11.31c-8.72,0-16.13-2.97-22.25-9.27-6.12-6.31-9.09-13.72-9.09-22.44v-10.01h28.37c7.42,0,13.91-2.78,19.29-8.16,5.38-5.38,8.16-12.98,8.16-22.81h-55.82v-23.18c0-7.79-2.78-14.46-8.35-20.21-5.75-5.56-13.72-8.35-23.92-8.35v51.74h-23.18c0,9.83,3.15,17.06,8.16,22.81,5.38,6.12,15.02,8.16,15.02,8.16v10.01c0,17.25,6.12,32.08,18.54,44.32,12.61,12.42,27.45,18.54,45.06,18.54h38.76c0-10.01-2.6-17.62-7.97-23h0Z"/>
  <path class="cls-1" d="M674.44,135.81c0-7.79-2.78-14.46-8.35-20.21-5.75-5.56-13.54-8.35-23.92-8.35v16.88c13.54,0,24.29,4.08,32.27,11.68h0Z"/>
  <path class="cls-1" d="M650.71,254.31c-5.75-5.56-8.53-12.42-8.53-20.21v-97.36c10.39,0,18.17,2.78,23.92,8.53,5.56,5.56,8.35,12.24,8.35,20.03v97.55c-10.2,0-18.17-2.97-23.74-8.53h0Z"/>
  <path class="cls-1" d="M931.66,254.31c-5.75-5.56-8.53-12.42-8.53-20.21v-34.12c0-8.72-2.97-16.32-9.09-22.62-6.12-6.49-13.54-9.64-22.25-9.64s-16.13,3.15-22.25,9.64c-6.12,6.31-9.09,13.91-9.09,22.62v34.12c0,7.79-2.78,14.65-8.53,20.21-5.56,5.56-13.54,8.53-23.92,8.53V107.25c10.39,0,18.36,2.78,23.92,8.35,5.75,5.75,8.53,12.42,8.53,20.21v7.97c7.97-4.64,18.36-7.05,31.34-7.05,17.62,0,32.45,6.12,45.06,18.54,12.42,12.42,18.54,27.26,18.54,44.69v62.87c-10.2,0-18.17-2.97-23.74-8.53h0Z"/>
  <path class="cls-1" d="M1029.95,167.71c-8.9,0-16.32,3.15-22.25,9.46-6.12,6.31-9.09,13.91-9.09,22.81s2.97,16.13,9.09,22.44c6.12,6.31,13.54,9.27,22.25,9.27s16.13-2.97,22.25-9.27c6.12-6.31,9.09-13.72,9.09-22.44s-2.97-16.5-9.09-22.81c-6.12-6.31-13.54-9.46-22.25-9.46h0ZM1029.95,262.84c-17.62,0-32.45-6.12-45.06-18.54-12.42-12.24-18.54-27.08-18.54-44.32s6.12-32.27,18.54-44.69c12.61-12.42,27.45-18.54,45.06-18.54s32.45,6.12,44.88,18.54c12.61,12.42,18.92,27.26,18.92,44.69s-6.31,32.08-18.92,44.32c-12.42,12.42-27.45,18.54-44.88,18.54h0Z"/>
  <path class="cls-1" d="M1234.49,138.03c-8.9,0-16.32,3.15-22.25,9.46-6.12,6.49-9.09,13.91-9.09,22.81v31.9h31.34c8.72,0,16.13-3.15,22.25-9.46,6.12-6.31,9.09-13.72,9.09-22.44s-2.97-16.32-9.09-22.81c-6.12-6.31-13.54-9.46-22.25-9.46h0ZM1234.49,233.17h-31.34v.93c0,7.79-2.97,14.65-8.53,20.21-5.56,5.56-13.54,8.53-23.92,8.53v-92.54c0-17.43,6.31-32.27,18.73-44.69,12.61-12.42,27.63-18.54,45.06-18.54s32.64,6.12,45.06,18.54c12.61,12.42,18.92,27.26,18.92,44.69s-6.31,32.27-18.92,44.51c-12.42,12.24-27.45,18.36-45.06,18.36h0Z"/>
  <path class="cls-1" d="M1372.47,262.84c-17.43,0-32.45-6.12-45.06-18.54-12.42-12.24-18.73-27.08-18.73-44.32v-64.16c10.2,0,18.17,2.97,23.92,8.53,5.56,5.56,8.35,12.42,8.35,20.21v35.42c0,8.72,3.15,16.13,9.27,22.44,6.12,6.31,13.54,9.27,22.25,9.27h11.31c7.6,0,14.09,2.78,19.29,8.16,5.38,5.38,8.16,12.98,8.16,23h-38.76Z"/>
  <path class="cls-1" d="M596,262.84c-17.62,0-32.45-6.12-45.06-18.54-12.42-12.24-18.73-27.08-18.73-44.32v-92.72c10.2,0,18.17,2.78,23.92,8.35,5.56,5.75,8.35,12.42,8.35,20.21v64.16c0,8.72,3.15,16.13,9.27,22.44,6.12,6.31,13.54,9.27,22.25,9.27h11.31c7.6,0,14.09,2.78,19.29,8.16,5.38,5.38,8.16,12.98,8.16,23h-38.76Z"/>
  <path class="cls-1" d="M1496.16,199.97c0-8.9-3.15-16.5-9.09-22.81-6.12-6.31-13.54-9.46-22.25-9.46s-16.32,3.15-22.44,9.46c-5.93,6.31-9.09,13.91-9.09,22.81s3.15,16.13,9.27,22.44c6.12,6.31,13.54,9.27,22.25,9.27h31.34v-31.71ZM1464.82,262.84c-17.43,0-32.45-6.12-45.06-18.54-12.42-12.24-18.73-27.08-18.73-44.32s6.31-32.27,18.73-44.69c12.61-12.42,27.63-18.54,45.06-18.54s32.45,6.12,45.06,18.54c12.61,12.42,18.92,27.26,18.92,44.69v62.87h-63.98Z"/>
  <path class="cls-1" d="M1644.52,254.31c-5.56-5.56-8.35-12.42-8.35-20.21v-34.12c0-8.72-3.15-16.32-9.27-22.62-5.93-6.49-13.35-9.64-22.07-9.64s-16.13,3.15-22.25,9.64c-6.12,6.31-9.27,13.91-9.27,22.62v34.12c0,7.79-2.78,14.65-8.35,20.21-5.75,5.56-13.72,8.53-23.92,8.53v-62.87c0-17.62,6.31-32.45,18.73-44.88,12.61-12.24,27.63-18.36,45.06-18.36s32.45,6.12,44.88,18.54c12.42,12.42,18.73,27.26,18.73,44.69v62.87c-10.39,0-18.17-2.97-23.92-8.53h0Z"/>
</svg>